# xmcd
#
# Track frame offsets: 
#        150
#        14443
#        30895
#        46050
#        62303
#        91702
#        108617
#        123440
#        137027
#        150230
#
# Disc length: 2239 seconds
#
# Revision: 0
# Processed by: cddbd v1.5.1PL0 Copyright (c) Steve Scherf et al.
# Submitted via: ExactAudioCopy v0.95a5
#
DISCID=6908bd0a
DTITLE=Dennis Agajanian - Con Mi Guitarra En La Mano
DYEAR=2002
DGENRE=Contemporary Christian
TTITLE0=Con Mi Guitarra En La Mano
TTITLE1=Con Que Pagaremos
TTITLE2=Ed El Desierto Con Mi Se
TTITLE3=Quiero Alabar A Jesus
TTITLE4=Malaguena
TTITLE5=Yo Se Que Cristo Me Ama
TTITLE6=Jesus Te Alabo
TTITLE7=Cerca De Ti Senor
TTITLE8=Hay Esperanza En Jesus
TTITLE9=Jehova Senor De Los Cielos
EXTD=
EXTT0=
EXTT1=
EXTT2=
EXTT3=
EXTT4=
EXTT5=
EXTT6=
EXTT7=
EXTT8=
EXTT9=
PLAYORDER=
